# xmcd
#
# Track frame offsets: 
#        150
#        15106
#        30950
#        46478
#        59971
#        79486
#        94115
#        106687
#        118873
#        133376
#        147290
#        160479
#        174924
#        189555
#        203629
#        215258
#        229287
#        243916
#        256744
#
# Disc length: 3625 seconds
#
# Revision: 0
# Processed by: cddbd v1.5.2PL0 Copyright (c) Steve Scherf et al.
# Submitted via: ExactAudioCopy v1.3
#
DISCID=060e2713
DTITLE=Alley Cat Blues Band - We Don't Talk Much
DYEAR=2019
DGENRE=Blues
TTITLE0=We Don't Talk Much
TTITLE1=Holding On
TTITLE2=Forget About The Past
TTITLE3=Hard Time Lettin' Go
TTITLE4=She Said It
TTITLE5=Blow It Off
TTITLE6=Remember When
TTITLE7=Chewed Out
TTITLE8=Tap It Out
TTITLE9=Dockyard Blues
TTITLE10=Mystery Woman
TTITLE11=Suck It Up
TTITLE12=Something
TTITLE13=Windows Down
TTITLE14=Really Gone
TTITLE15=Higher Ground
TTITLE16=Westward
TTITLE17=Nice Try
TTITLE18=One Too Many
EXTD=
EXTT0=
EXTT1=
EXTT2=
EXTT3=
EXTT4=
EXTT5=
EXTT6=
EXTT7=
EXTT8=
EXTT9=
EXTT10=
EXTT11=
EXTT12=
EXTT13=
EXTT14=
EXTT15=
EXTT16=
EXTT17=
EXTT18=
PLAYORDER=
